<?xml version="1.0" encoding="UTF-8" standalone="no"?>
<!DOCTYPE svg PUBLIC "-//W3C//DTD SVG 1.1//EN"
 "http://www.w3.org/Graphics/SVG/1.1/DTD/svg11.dtd">
<!-- Generated by graphviz version 7.0.6 (0)
 -->
<!-- Title: include/set.h Pages: 1 -->
<svg width="194pt" height="82pt"
 viewBox="0.00 0.00 194.00 82.00" xmlns="http://www.w3.org/2000/svg" xmlns:xlink="http://www.w3.org/1999/xlink">
<g id="graph0" class="graph" transform="scale(1 1) rotate(0) translate(4 78)">
<title>include/set.h</title>
<!-- Node1 -->
<g id="node1" class="node">
<title>Node1</title>
<g id="a_node1"><a xlink:title="This is the main header file of the cset library. It contains all the functions and their implementat...">
<polygon fill="#999999" stroke="#666666" points="137,-74 65,-74 65,-55 137,-55 137,-74"/>
<text text-anchor="middle" x="101" y="-62" font-family="Helvetica,sans-Serif" font-size="10.00">include/set.h</text>
</a>
</g>
</g>
<!-- Node2 -->
<g id="node2" class="node">
<title>Node2</title>
<g id="a_node2"><a xlink:href="$benchmark_2set_8cpp.html" xlink:title="This is the main benchmark file of the cset library. It contains all the benchmarks needed to test th...">
<polygon fill="white" stroke="#666666" points="100,-19 0,-19 0,0 100,0 100,-19"/>
<text text-anchor="middle" x="50" y="-7" font-family="Helvetica,sans-Serif" font-size="10.00">benchmark/set.cpp</text>
</a>
</g>
</g>
<!-- Node1&#45;&gt;Node2 -->
<g id="edge1" class="edge">
<title>Node1&#45;&gt;Node2</title>
<path fill="none" stroke="#63b8ff" d="M84.64,-46.5C75.98,-37.5 65.7,-26.82 58.6,-19.44"/>
<polygon fill="#63b8ff" stroke="#63b8ff" points="82.07,-48.88 91.53,-53.66 87.12,-44.02 82.07,-48.88"/>
</g>
<!-- Node3 -->
<g id="node3" class="node">
<title>Node3</title>
<g id="a_node3"><a xlink:href="$test_2set_8cpp.html" xlink:title="This is the main test file of the cset library. It contains all the test needed to assure that the li...">
<polygon fill="white" stroke="#666666" points="186,-19 118,-19 118,0 186,0 186,-19"/>
<text text-anchor="middle" x="152" y="-7" font-family="Helvetica,sans-Serif" font-size="10.00">test/set.cpp</text>
</a>
</g>
</g>
<!-- Node1&#45;&gt;Node3 -->
<g id="edge2" class="edge">
<title>Node1&#45;&gt;Node3</title>
<path fill="none" stroke="#63b8ff" d="M117.36,-46.5C126.02,-37.5 136.3,-26.82 143.4,-19.44"/>
<polygon fill="#63b8ff" stroke="#63b8ff" points="114.88,-44.02 110.47,-53.66 119.93,-48.88 114.88,-44.02"/>
</g>
</g>
</svg>
