<?xml version="1.0" encoding="UTF-8" standalone="no"?>
<!DOCTYPE svg PUBLIC "-//W3C//DTD SVG 1.1//EN"
 "http://www.w3.org/Graphics/SVG/1.1/DTD/svg11.dtd">
<!-- Generated by graphviz version 7.0.6 (0)
 -->
<!-- Title: benchmark/set.cpp Pages: 1 -->
<svg width="491pt" height="137pt"
 viewBox="0.00 0.00 491.00 137.00" xmlns="http://www.w3.org/2000/svg" xmlns:xlink="http://www.w3.org/1999/xlink">
<g id="graph0" class="graph" transform="scale(1 1) rotate(0) translate(4 133)">
<title>benchmark/set.cpp</title>
<!-- Node1 -->
<g id="node1" class="node">
<title>Node1</title>
<g id="a_node1"><a xlink:title="This is the main benchmark file of the cset library. It contains all the benchmarks needed to test th...">
<polygon fill="#999999" stroke="#666666" points="274,-129 174,-129 174,-110 274,-110 274,-129"/>
<text text-anchor="middle" x="224" y="-117" font-family="Helvetica,sans-Serif" font-size="10.00">benchmark/set.cpp</text>
</a>
</g>
</g>
<!-- Node2 -->
<g id="node2" class="node">
<title>Node2</title>
<g id="a_node2"><a xlink:title=" ">
<polygon fill="#e0e0e0" stroke="#999999" points="54,-74 0,-74 0,-55 54,-55 54,-74"/>
<text text-anchor="middle" x="27" y="-62" font-family="Helvetica,sans-Serif" font-size="10.00">iostream</text>
</a>
</g>
</g>
<!-- Node1&#45;&gt;Node2 -->
<g id="edge1" class="edge">
<title>Node1&#45;&gt;Node2</title>
<path fill="none" stroke="#63b8ff" d="M190.58,-109.51C155.76,-100.14 101.3,-85.49 64.9,-75.7"/>
<polygon fill="#63b8ff" stroke="#63b8ff" points="66.25,-72.44 55.69,-73.22 64.44,-79.2 66.25,-72.44"/>
</g>
<!-- Node3 -->
<g id="node3" class="node">
<title>Node3</title>
<g id="a_node3"><a xlink:title=" ">
<polygon fill="#e0e0e0" stroke="#999999" points="113.5,-74 72.5,-74 72.5,-55 113.5,-55 113.5,-74"/>
<text text-anchor="middle" x="93" y="-62" font-family="Helvetica,sans-Serif" font-size="10.00">string</text>
</a>
</g>
</g>
<!-- Node1&#45;&gt;Node3 -->
<g id="edge2" class="edge">
<title>Node1&#45;&gt;Node3</title>
<path fill="none" stroke="#63b8ff" d="M201.78,-109.51C180.48,-100.89 148.13,-87.8 124.24,-78.14"/>
<polygon fill="#63b8ff" stroke="#63b8ff" points="125.59,-74.91 115,-74.4 122.96,-81.4 125.59,-74.91"/>
</g>
<!-- Node4 -->
<g id="node4" class="node">
<title>Node4</title>
<g id="a_node4"><a xlink:title=" ">
<polygon fill="#e0e0e0" stroke="#999999" points="287,-19 243,-19 243,0 287,0 287,-19"/>
<text text-anchor="middle" x="265" y="-7" font-family="Helvetica,sans-Serif" font-size="10.00">vector</text>
</a>
</g>
</g>
<!-- Node1&#45;&gt;Node4 -->
<g id="edge3" class="edge">
<title>Node1&#45;&gt;Node4</title>
<path fill="none" stroke="#63b8ff" d="M203.35,-109.68C179.79,-98.3 146.29,-77.29 161,-55 176.52,-31.47 207.33,-20.34 231.4,-15.1"/>
<polygon fill="#63b8ff" stroke="#63b8ff" points="231.92,-18.56 241.09,-13.25 230.61,-11.68 231.92,-18.56"/>
</g>
<!-- Node5 -->
<g id="node5" class="node">
<title>Node5</title>
<g id="a_node5"><a xlink:title=" ">
<polygon fill="#e0e0e0" stroke="#999999" points="216,-74 170,-74 170,-55 216,-55 216,-74"/>
<text text-anchor="middle" x="193" y="-62" font-family="Helvetica,sans-Serif" font-size="10.00">chrono</text>
</a>
</g>
</g>
<!-- Node1&#45;&gt;Node5 -->
<g id="edge4" class="edge">
<title>Node1&#45;&gt;Node5</title>
<path fill="none" stroke="#63b8ff" d="M218.88,-109.75C214.82,-102.81 209.01,-92.86 203.91,-84.16"/>
<polygon fill="#63b8ff" stroke="#63b8ff" points="207.06,-82.61 198.99,-75.75 201.02,-86.15 207.06,-82.61"/>
</g>
<!-- Node6 -->
<g id="node6" class="node">
<title>Node6</title>
<g id="a_node6"><a xlink:title=" ">
<polygon fill="#e0e0e0" stroke="#999999" points="278,-74 234,-74 234,-55 278,-55 278,-74"/>
<text text-anchor="middle" x="256" y="-62" font-family="Helvetica,sans-Serif" font-size="10.00">thread</text>
</a>
</g>
</g>
<!-- Node1&#45;&gt;Node6 -->
<g id="edge5" class="edge">
<title>Node1&#45;&gt;Node6</title>
<path fill="none" stroke="#63b8ff" d="M229.28,-109.75C233.47,-102.81 239.48,-92.86 244.73,-84.16"/>
<polygon fill="#63b8ff" stroke="#63b8ff" points="247.65,-86.11 249.82,-75.74 241.65,-82.49 247.65,-86.11"/>
</g>
<!-- Node7 -->
<g id="node7" class="node">
<title>Node7</title>
<g id="a_node7"><a xlink:title=" ">
<polygon fill="#e0e0e0" stroke="#999999" points="355.5,-74 296.5,-74 296.5,-55 355.5,-55 355.5,-74"/>
<text text-anchor="middle" x="326" y="-62" font-family="Helvetica,sans-Serif" font-size="10.00">functional</text>
</a>
</g>
</g>
<!-- Node1&#45;&gt;Node7 -->
<g id="edge6" class="edge">
<title>Node1&#45;&gt;Node7</title>
<path fill="none" stroke="#63b8ff" d="M241.3,-109.51C257.08,-101.31 280.64,-89.07 298.91,-79.58"/>
<polygon fill="#63b8ff" stroke="#63b8ff" points="300.35,-82.77 307.61,-75.06 297.12,-76.56 300.35,-82.77"/>
</g>
<!-- Node8 -->
<g id="node8" class="node">
<title>Node8</title>
<g id="a_node8"><a xlink:title=" ">
<polygon fill="#e0e0e0" stroke="#999999" points="418,-74 374,-74 374,-55 418,-55 418,-74"/>
<text text-anchor="middle" x="396" y="-62" font-family="Helvetica,sans-Serif" font-size="10.00">mutex</text>
</a>
</g>
</g>
<!-- Node1&#45;&gt;Node8 -->
<g id="edge7" class="edge">
<title>Node1&#45;&gt;Node8</title>
<path fill="none" stroke="#63b8ff" d="M253.18,-109.51C283.48,-100.17 330.82,-85.58 362.6,-75.79"/>
<polygon fill="#63b8ff" stroke="#63b8ff" points="363.57,-79.15 372.1,-72.86 361.51,-72.46 363.57,-79.15"/>
</g>
<!-- Node9 -->
<g id="node9" class="node">
<title>Node9</title>
<g id="a_node9"><a xlink:href="set_8h.html" target="_top" xlink:title="This is the main header file of the cset library. It contains all the functions and their implementat...">
<polygon fill="white" stroke="#666666" points="474,-74 436,-74 436,-55 474,-55 474,-74"/>
<text text-anchor="middle" x="455" y="-62" font-family="Helvetica,sans-Serif" font-size="10.00">set.h</text>
</a>
</g>
</g>
<!-- Node1&#45;&gt;Node9 -->
<g id="edge8" class="edge">
<title>Node1&#45;&gt;Node9</title>
<path fill="none" stroke="#63b8ff" d="M269.8,-109.54C308.68,-101.69 366.18,-89.52 424.82,-74.41"/>
<polygon fill="#63b8ff" stroke="#63b8ff" points="425.52,-77.84 434.31,-71.94 423.75,-71.07 425.52,-77.84"/>
</g>
<!-- Node9&#45;&gt;Node4 -->
<g id="edge10" class="edge">
<title>Node9&#45;&gt;Node4</title>
<path fill="none" stroke="#63b8ff" d="M435.74,-57.58C432.82,-56.7 429.83,-55.82 427,-55 382.51,-42.14 330.89,-28.11 298.1,-19.31"/>
<polygon fill="#63b8ff" stroke="#63b8ff" points="299.35,-16.03 288.79,-16.82 297.54,-22.79 299.35,-16.03"/>
</g>
<!-- Node10 -->
<g id="node10" class="node">
<title>Node10</title>
<g id="a_node10"><a xlink:title=" ">
<polygon fill="#e0e0e0" stroke="#999999" points="483,-19 427,-19 427,0 483,0 483,-19"/>
<text text-anchor="middle" x="455" y="-7" font-family="Helvetica,sans-Serif" font-size="10.00">algorithm</text>
</a>
</g>
</g>
<!-- Node9&#45;&gt;Node10 -->
<g id="edge9" class="edge">
<title>Node9&#45;&gt;Node10</title>
<path fill="none" stroke="#63b8ff" d="M455,-54.75C455,-48.27 455,-39.16 455,-30.9"/>
<polygon fill="#63b8ff" stroke="#63b8ff" points="458.5,-30.96 455,-20.96 451.5,-30.96 458.5,-30.96"/>
</g>
</g>
</svg>
